<svg width="90" height="24" viewBox="0 0 90 24" fill="none" xmlns="http://www.w3.org/2000/svg">
<path d="M26.417 18.8577V3.20758H35.8683V5.79701H29.2346V9.86286H35.0474V12.4296H29.2346V16.2683H36.0901V18.8577H26.417Z" fill="white"/>
<path d="M42.2875 18.8576L37.939 8.25H40.8232L43.4855 15.3141L46.1478 8.25H49.0542L44.6836 18.8576H42.2875Z" fill="white"/>
<path d="M61.3576 13.5192C61.3576 13.8221 61.3429 14.1401 61.3132 14.4732H53.415C53.5037 15.1698 53.8068 15.7225 54.3246 16.1313C54.8571 16.5402 55.508 16.7446 56.277 16.7446C56.8241 16.7446 57.3344 16.6311 57.8078 16.4039C58.2813 16.1616 58.6362 15.8209 58.8728 15.3818C59.198 15.5635 59.8858 15.942 60.9361 16.5175C60.4923 17.3806 59.8343 18.0242 58.9615 18.4482C58.0887 18.8722 57.1347 19.0842 56.0995 19.0842C54.5908 19.0842 53.3187 18.5694 52.2835 17.5396C51.2483 16.4948 50.7305 15.1546 50.7305 13.5192C50.7305 11.8838 51.2483 10.5588 52.2835 9.5442C53.3187 8.52964 54.5908 8.02234 56.0995 8.02234C57.6081 8.02234 58.8581 8.52964 59.8489 9.5442C60.8548 10.5588 61.3576 11.8838 61.3576 13.5192ZM53.3928 12.5879H58.7174C58.6141 11.8762 58.3256 11.3235 57.8522 10.9298C57.3787 10.536 56.8019 10.3392 56.1217 10.3392C55.3971 10.3392 54.783 10.5436 54.2802 10.9525C53.7921 11.3462 53.4962 11.8914 53.3928 12.5879Z" fill="white"/>
<path d="M64.4741 18.858V2.48102H67.1808V18.858H64.4741Z" fill="white"/>
<path d="M71.0742 18.858V2.48102H73.7809V18.858H71.0742Z" fill="white"/>
<path d="M80.492 15.5862C81.0098 16.101 81.6532 16.3585 82.4222 16.3585C83.1912 16.3585 83.8346 16.101 84.3524 15.5862C84.8702 15.0562 85.1289 14.3672 85.1289 13.5192C85.1289 12.7015 84.8702 12.0352 84.3524 11.5203C83.8346 11.0055 83.1912 10.7481 82.4222 10.7481C81.6532 10.7481 81.0098 11.0055 80.492 11.5203C79.9742 12.0352 79.7155 12.7015 79.7155 13.5192C79.7155 14.3672 79.9742 15.0562 80.492 15.5862ZM86.2382 17.5169C85.203 18.5466 83.9309 19.0615 82.4222 19.0615C80.9136 19.0615 79.6343 18.5466 78.584 17.5169C77.5488 16.4872 77.031 15.1546 77.031 13.5192C77.031 11.8838 77.5488 10.5588 78.584 9.5442C79.6343 8.52964 80.9136 8.02234 82.4222 8.02234C83.9309 8.02234 85.203 8.52964 86.2382 9.5442C87.2885 10.5588 87.8134 11.8838 87.8134 13.5192C87.8134 15.1546 87.2885 16.4872 86.2382 17.5169Z" fill="white"/>
<path d="M2.61129 11.4772C2.61129 11.4772 2.96819 10.1421 4.73313 9.6579C5.60131 9.4197 15.6846 6.65357 15.6846 6.65357C17.5627 6.13834 18.6834 4.1874 18.1886 2.29688L4.95691 5.9259C2.44601 6.6147 1.94933 8.94797 2.61129 11.4772Z" fill="#4530CC"/>
<path d="M4.04267 22.7333C4.04267 22.7333 4.39955 21.3981 6.16447 20.9139C7.0327 20.6757 14.8067 18.5431 14.8067 18.5431C16.6849 18.0279 17.8056 16.0769 17.3108 14.1864L6.38926 17.1825C3.87739 17.8707 3.38071 20.204 4.04267 22.7333Z" fill="#4530CC"/>
<path d="M3.34491 17.2278C3.34491 17.2278 3.70182 15.8926 5.46674 15.4085C6.33497 15.1703 15.0087 12.7908 15.0087 12.7908C16.8868 12.2756 18.0075 10.3247 17.5127 8.43414L5.69149 11.677C3.17964 12.3653 2.68296 14.6986 3.34491 17.2278Z" fill="#4530CC"/>
</svg>
